<svg width="1840" height="540" viewBox="0 0 1840 540" fill="none" xmlns="http://www.w3.org/2000/svg">
<g clip-path="url(#clip0_4377_3343)">
<path d="M920.121 0.00105557L919.479 604M460.193 604L837.819 0.00105557M1002.4 0.00105557L1378.73 604M0.401295 236.449L590.945 0.00316871M0.401295 2.10595L14.8717 0M0.401295 15.5074L97.1664 0.00316871M0.401295 31.8713L179.461 0M0.401295 52.3362L261.761 0M0.401295 78.6406L344.055 0M0.401295 113.71L426.351 0M0.401295 162.814L508.653 0.00422428M0.401295 359.142L673.239 0.00105557M0.929318 603.999L755.531 0M1839.85 2.10595L1825.39 0M1839.85 15.5074L1743.08 0.00316871M1839.84 31.8871L1660.79 0.00211113M1839.84 52.3573L1578.48 0.00105557M1839.84 78.6765L1496.19 0.00105557M1413.89 0.00211113L1839.84 113.775M1331.61 0.00105557L1840 162.968M1249.31 0.00105557L1839.84 236.649M1167.02 0.00211113L1839.85 359.551M1084.72 0.00105557L1838.03 604M1839.87 5.91864H0.401295M1839.87 12.3939H0.401295M1839.87 19.5112H0.401295M1839.87 27.3552H0.401295M1839.87 36.0621H0.401295M1839.87 45.7786H0.401295M1839.87 56.6918H0.401295M1839.87 69.0265H0.401295M1839.87 83.088H0.401295M1839.87 99.2703H0.401295M1839.87 118.093H0.401295M1839.87 140.24H0.401295M1839.87 166.703H0.401295M1839.85 198.867H0M1839.87 238.791H0.401295M1839.87 289.682H0.401295M1839.87 356.782H0.401295M1839.87 449.275H0.401295M1839.87 553.963H0.401295" stroke="#140227" stroke-opacity="0.08" stroke-width="2" stroke-linecap="round" stroke-linejoin="round"/>
</g>
<defs>
<clipPath id="clip0_4377_3343">
<rect width="1840" height="585" fill="white"/>
</clipPath>
</defs>
</svg>
