<svg width="40" height="40" viewBox="0 0 40 40" fill="none" xmlns="http://www.w3.org/2000/svg">
<g clip-path="url(#clip0_4377_3600)">
<circle cx="20.0001" cy="19.9962" r="20.0001" fill="white"/>
<g clip-path="url(#clip1_4377_3600)">
<path d="M26.5625 22.027C25.4608 22.027 24.4257 21.562 23.4882 20.8008L23.7147 19.7268L23.7222 19.684C23.9292 18.5433 24.5697 16.6255 26.5618 16.6255C27.2786 16.6257 27.966 16.9106 28.4728 17.4174C28.9797 17.9243 29.2646 18.6117 29.2648 19.3285C29.2636 20.0447 28.9783 20.7311 28.4715 21.2372C27.9648 21.7433 27.2779 22.0276 26.5618 22.0278L26.5625 22.027ZM26.5625 13.8903C24.0238 13.8903 22.0505 15.5388 21.2502 18.2538C20.0315 16.4215 19.1015 14.2188 18.563 12.3633H15.8285V19.4763C15.8271 20.1514 15.5583 20.7984 15.081 21.2758C14.6036 21.7531 13.9566 22.0219 13.2815 22.0233C12.6066 22.0213 11.9599 21.7523 11.4827 21.2751C11.0055 20.7979 10.7365 20.1512 10.7345 19.4763V12.3633H8V19.4763C8 22.39 10.3707 24.7773 13.2815 24.7773C16.1952 24.7773 18.563 22.3908 18.563 19.4763V18.2845C19.094 19.39 19.7465 20.515 20.5392 21.5073L18.8637 29.3785H21.6605L22.8755 23.6673C23.9382 24.3468 25.1607 24.7765 26.5632 24.7765C29.5632 24.7765 32.0007 22.3233 32.0007 19.327C32.0007 16.327 29.5632 13.8895 26.5632 13.8895L26.5625 13.8903Z" fill="black"/>
</g>
</g>
<defs>
<clipPath id="clip0_4377_3600">
<rect width="40" height="40" fill="white"/>
</clipPath>
<clipPath id="clip1_4377_3600">
<rect width="24" height="24" fill="white" transform="translate(8 8)"/>
</clipPath>
</defs>
</svg>
