<svg width="40" height="40" viewBox="0 0 40 40" fill="none" xmlns="http://www.w3.org/2000/svg">
<g clip-path="url(#clip0_4377_3604)">
<path d="M20 -0.00195312C31.0456 -0.00194179 39.9997 8.95256 40 19.998C40 31.0438 31.0457 39.998 20 39.998C8.95429 39.998 0 31.0438 0 19.998C0.000280374 8.95257 8.95446 -0.00192529 20 -0.00195312ZM20 7.29883C12.9877 7.29883 7.28235 12.9976 7.28223 20.001C7.28244 27.0043 12.9877 32.7021 20 32.7021C27.0125 32.702 32.7176 27.0045 32.7178 20.001C32.7177 12.9977 27.0125 7.29902 20 7.29883ZM21.8789 21.8477C23.3544 25.6893 23.9789 28.9136 24.1504 29.9131C22.8734 30.45 21.4709 30.7471 20 30.7471C17.5358 30.7471 15.2619 29.9119 13.4473 28.5127C13.7548 27.9099 15.983 23.8995 21.8672 21.8516C21.8706 21.8502 21.8748 21.8487 21.8789 21.8477ZM26.1885 21.1582C28.4342 21.1582 30.1914 21.6496 30.5996 21.7744C30.1144 24.7011 28.4386 27.2344 26.0859 28.8555C25.9419 28.0287 25.3626 25.006 24.0264 21.3203C24.7757 21.2037 25.5047 21.1582 26.1885 21.1582ZM20.2725 18.2285C20.5619 18.7946 20.8384 19.369 21.0947 19.9434C20.9742 19.9779 20.8553 20.0133 20.7373 20.0518C15.367 21.7862 12.4151 26.3775 11.9609 27.1279C10.2782 25.232 9.25497 22.7429 9.25488 20.0186C9.25488 19.9301 9.25691 19.841 9.25977 19.7529C9.32394 19.7536 9.41907 19.7539 9.54199 19.7539C10.8758 19.7539 15.5035 19.6437 20.2725 18.2285ZM28.3682 13.293C29.8188 15.0909 30.7006 17.3617 30.7412 19.8359C30.2585 19.7368 28.2142 19.3555 25.7715 19.3555C24.9832 19.3555 24.1531 19.3954 23.3213 19.498C23.2511 19.3273 23.1812 19.1571 23.1074 18.9854C22.8918 18.4781 22.6596 17.9744 22.4189 17.4785C26.1785 15.9294 27.992 13.7796 28.3682 13.293ZM15.3848 10.3281C15.7552 10.8384 17.5943 13.4056 19.3154 16.4482C14.6965 17.6624 10.5949 17.7422 9.60449 17.7422H9.49902C10.2103 14.4643 12.4253 11.7403 15.3848 10.3281ZM20 9.28711C22.7098 9.28715 25.1871 10.294 27.0791 11.9521C26.7796 12.3607 25.1548 14.391 21.5293 15.7607C19.8514 12.6938 18.0156 10.1537 17.5781 9.56348C18.357 9.38314 19.1677 9.28711 20 9.28711Z" fill="white"/>
</g>
<defs>
<clipPath id="clip0_4377_3604">
<rect width="40" height="40" fill="white"/>
</clipPath>
</defs>
</svg>
