<svg width="40" height="40" viewBox="0 0 40 40" fill="none" xmlns="http://www.w3.org/2000/svg">
<g clip-path="url(#clip0_4377_3577)">
<path d="M20 -0.00195312C31.0456 -0.00195312 39.9998 8.95245 40 19.998C40 31.0438 31.0457 39.998 20 39.998C8.95429 39.998 0 31.0438 0 19.998C0.000159773 8.95247 8.95439 -0.00192529 20 -0.00195312ZM21.5078 7.75781C17.0627 7.75781 16.0527 11.0876 16.0527 13.2139V16.1875H13.4814V20.7822H16.0527V33.8564H21.46V20.7822H25.0283L25.501 16.1914H21.46V13.4873C21.46 12.4733 22.1298 12.2345 22.6064 12.2344H25.5127V7.77441L21.5078 7.75781Z" fill="white"/>
</g>
<defs>
<clipPath id="clip0_4377_3577">
<rect width="40" height="40" fill="white"/>
</clipPath>
</defs>
</svg>
