<svg width="40" height="40" viewBox="0 0 40 40" fill="none" xmlns="http://www.w3.org/2000/svg">
<g clip-path="url(#clip0_4377_3591)">
<path d="M25.9609 10.6406C27.8643 10.6406 29.4121 12.1889 29.4121 14.0918V26.0137C29.4121 27.917 27.8638 29.4648 25.9609 29.4648H14.0391C12.1362 29.4648 10.5879 27.9166 10.5879 26.0137V14.0918C10.5879 12.1889 12.1362 10.6406 14.0391 10.6406H25.9609ZM20 13.8574C16.5834 13.8574 13.8039 16.6371 13.8037 20.0537C13.8037 23.4709 16.5832 26.251 20 26.251C23.4167 26.2509 26.1973 23.4705 26.1973 20.0537C26.197 16.6372 23.4171 13.8575 20 13.8574ZM26.3965 12.2051C25.5878 12.2051 24.9299 12.8627 24.9297 13.6709C24.9297 14.4793 25.5876 15.1377 26.3965 15.1377C27.2048 15.1376 27.8623 14.4792 27.8623 13.6709C27.8621 12.8627 27.2047 12.2052 26.3965 12.2051Z" fill="white"/>
<path d="M19.9999 16.4746C18.0275 16.4746 16.4214 18.0798 16.4214 20.0523C16.4214 22.0256 18.0275 23.6313 19.9999 23.6313C21.9733 23.6313 23.578 22.0256 23.578 20.0523C23.578 18.0803 21.9728 16.4746 19.9999 16.4746Z" fill="white"/>
<path d="M20 0C31.0453 0 39.9999 8.95473 40 20C40 31.0454 31.0454 40 20 40C8.95473 39.9999 0 31.0453 0 20C0.000103008 8.95479 8.95479 0.000103001 20 0ZM14.0391 8.02344C10.6924 8.02344 7.96993 10.7461 7.96973 14.0928V26.0146C7.96973 29.3619 10.6923 32.085 14.0391 32.085H25.9609C29.3082 32.0849 32.0303 29.3619 32.0303 26.0146V14.0928C32.0301 10.7462 29.308 8.02346 25.9609 8.02344H14.0391Z" fill="white"/>
</g>
<defs>
<clipPath id="clip0_4377_3591">
<rect width="40" height="40" fill="white"/>
</clipPath>
</defs>
</svg>
