<svg width="40" height="40" viewBox="0 0 40 40" fill="none" xmlns="http://www.w3.org/2000/svg">
<g clip-path="url(#clip0_4377_3571)">
<path d="M20 0C31.0455 6.84577e-05 39.9999 8.87563 40 19.8242C40 30.7729 31.0456 39.6484 20 39.6484C8.95438 39.6484 0 30.773 0 19.8242C0.000117511 8.87558 8.95445 0 20 0ZM9.93457 29.5938H14.7139V15.3418H9.93457V29.5938ZM26.4463 15.0059C23.9061 15.0059 22.773 16.3914 22.1377 17.3604V17.4072H22.1064C22.115 17.3921 22.1281 17.3762 22.1377 17.3604V15.3408H17.3564C17.4206 16.6793 17.3564 29.5928 17.3564 29.5928H22.1377V21.6328C22.1377 21.2056 22.17 20.7822 22.2959 20.4775C22.6425 19.6252 23.4273 18.7451 24.748 18.7451C26.4786 18.7453 27.1688 20.0525 27.1689 21.9668V29.5928H31.9492V21.4199C31.9492 17.0432 29.5914 15.0059 26.4463 15.0059ZM12.3555 8.47266C10.7203 8.47273 9.65047 9.53668 9.65039 10.9346C9.65039 12.3029 10.6894 13.3975 12.293 13.3975H12.3242C13.9915 13.3973 15.0283 12.3028 15.0283 10.9346C14.9965 9.53663 13.9911 8.47266 12.3555 8.47266Z" fill="white"/>
</g>
<defs>
<clipPath id="clip0_4377_3571">
<rect width="40" height="40" fill="white"/>
</clipPath>
</defs>
</svg>
