<svg width="1920" height="714" viewBox="0 0 1920 714" fill="none" xmlns="http://www.w3.org/2000/svg">
<g clip-path="url(#clip0_4377_3411)">
<rect width="1920" height="714" fill="#9331F4" fill-opacity="0.08"/>
<g clip-path="url(#clip1_4377_3411)">
<path d="M-1048.28 -521.379C-1048.28 -521.379 -860.69 595.862 419.31 946.207C1699.31 1296.55 1886.9 2413.79 1886.9 2413.79M-1028.97 -543.448C-1028.97 -543.448 -841.379 573.793 438.621 924.138C1718.62 1274.48 1906.21 2391.72 1906.21 2391.72M-1009.66 -565.517C-1009.66 -565.517 -822.069 551.724 457.931 902.069C1737.93 1252.41 1925.52 2369.66 1925.52 2369.66M-990.345 -587.586C-990.345 -587.586 -802.759 529.655 477.241 880C1757.24 1230.34 1944.83 2347.59 1944.83 2347.59M-971.034 -609.655C-971.034 -609.655 -783.448 507.586 496.552 857.931C1776.55 1208.28 1964.14 2325.52 1964.14 2325.52M-951.724 -631.724C-951.724 -631.724 -764.138 485.517 515.862 835.862C1795.86 1186.21 1983.45 2303.45 1983.45 2303.45M-932.414 -653.793C-932.414 -653.793 -744.828 463.448 535.172 813.793C1815.17 1164.14 2002.76 2281.38 2002.76 2281.38M-913.103 -675.862C-913.103 -675.862 -725.517 441.379 554.483 791.724C1834.48 1142.07 2022.07 2259.31 2022.07 2259.31M-893.793 -697.931C-893.793 -697.931 -706.207 419.31 573.793 769.655C1853.79 1120 2041.38 2237.24 2041.38 2237.24M-874.483 -720C-874.483 -720 -686.897 397.241 593.103 747.586C1873.1 1097.93 2060.69 2215.17 2060.69 2215.17M-855.172 -742.069C-855.172 -742.069 -667.586 375.172 612.414 725.517C1892.41 1075.86 2080 2193.1 2080 2193.1M-835.862 -764.138C-835.862 -764.138 -648.276 353.103 631.724 703.448C1911.72 1053.79 2099.31 2171.03 2099.31 2171.03M-816.552 -786.207C-816.552 -786.207 -628.966 331.034 651.034 681.379C1931.03 1031.72 2118.62 2148.97 2118.62 2148.97M-797.241 -808.276C-797.241 -808.276 -609.655 308.965 670.345 659.31C1950.34 1009.66 2137.93 2126.9 2137.93 2126.9M-777.931 -830.345C-777.931 -830.345 -590.345 286.896 689.655 637.241C1969.66 987.586 2157.24 2104.83 2157.24 2104.83M-758.621 -852.414C-758.621 -852.414 -571.034 264.827 708.966 615.172C1988.97 965.517 2176.55 2082.76 2176.55 2082.76M-739.31 -874.483C-739.31 -874.483 -551.724 242.758 728.276 593.103C2008.28 943.448 2195.86 2060.69 2195.86 2060.69M-720 -896.552C-720 -896.552 -532.414 220.689 747.586 571.034C2027.59 921.379 2215.17 2038.62 2215.17 2038.62M-700.69 -918.621C-700.69 -918.621 -513.103 198.621 766.897 548.965C2046.9 899.31 2234.48 2016.55 2234.48 2016.55M-681.379 -940.69C-681.379 -940.69 -493.793 176.552 786.207 526.896C2066.21 877.241 2253.79 1994.48 2253.79 1994.48M-662.069 -962.759C-662.069 -962.759 -474.483 154.483 805.517 504.827C2085.52 855.172 2273.1 1972.41 2273.1 1972.41M-642.759 -984.828C-642.759 -984.828 -455.172 132.414 824.828 482.758C2104.83 833.103 2292.41 1950.34 2292.41 1950.34M-623.448 -1006.9C-623.448 -1006.9 -435.862 110.345 844.138 460.689C2124.14 811.034 2311.72 1928.28 2311.72 1928.28M-604.138 -1028.97C-604.138 -1028.97 -416.552 88.2757 863.448 438.621C2143.45 788.965 2331.03 1906.21 2331.03 1906.21M-584.828 -1051.03C-584.828 -1051.03 -397.241 66.2067 882.759 416.552C2162.76 766.896 2350.34 1884.14 2350.34 1884.14M-565.517 -1073.1C-565.517 -1073.1 -377.931 44.1378 902.069 394.483C2182.07 744.827 2369.66 1862.07 2369.66 1862.07M-546.207 -1095.17C-546.207 -1095.17 -358.621 22.0688 921.379 372.414C2201.38 722.758 2388.97 1840 2388.97 1840M-526.897 -1117.24C-526.897 -1117.24 -339.31 -0.000170231 940.69 350.345C2220.69 700.689 2408.28 1817.93 2408.28 1817.93M-507.586 -1139.31C-507.586 -1139.31 -320 -22.0691 960 328.276C2240 678.621 2427.59 1795.86 2427.59 1795.86M-488.276 -1161.38C-488.276 -1161.38 -300.69 -44.1381 979.31 306.207C2259.31 656.552 2446.9 1773.79 2446.9 1773.79M-468.966 -1183.45C-468.966 -1183.45 -281.379 -66.2071 998.621 284.138C2278.62 634.483 2466.21 1751.72 2466.21 1751.72M-449.655 -1205.52C-449.655 -1205.52 -262.069 -88.276 1017.93 262.069C2297.93 612.414 2485.52 1729.66 2485.52 1729.66M-430.345 -1227.59C-430.345 -1227.59 -242.759 -110.345 1037.24 240C2317.24 590.345 2504.83 1707.59 2504.83 1707.59M-411.034 -1249.66C-411.034 -1249.66 -223.448 -132.414 1056.55 217.931C2336.55 568.276 2524.14 1685.52 2524.14 1685.52M-391.724 -1271.72C-391.724 -1271.72 -204.138 -154.483 1075.86 195.862C2355.86 546.207 2543.45 1663.45 2543.45 1663.45M-372.414 -1293.79C-372.414 -1293.79 -184.828 -176.552 1095.17 173.793C2375.17 524.138 2562.76 1641.38 2562.76 1641.38M-353.103 -1315.86C-353.103 -1315.86 -165.517 -198.621 1114.48 151.724C2394.48 502.069 2582.07 1619.31 2582.07 1619.31M-333.793 -1337.93C-333.793 -1337.93 -146.207 -220.69 1133.79 129.655C2413.79 480 2601.38 1597.24 2601.38 1597.24M-314.483 -1360C-314.483 -1360 -126.897 -242.759 1153.1 107.586C2433.1 457.931 2620.69 1575.17 2620.69 1575.17M-295.172 -1382.07C-295.172 -1382.07 -107.586 -264.828 1172.41 85.5171C2452.41 435.862 2640 1553.1 2640 1553.1M-275.862 -1404.14C-275.862 -1404.14 -88.2759 -286.897 1191.72 63.4481C2471.72 413.793 2659.31 1531.03 2659.31 1531.03M-256.552 -1426.21C-256.552 -1426.21 -68.9655 -308.966 1211.03 41.3791C2491.03 391.724 2678.62 1508.97 2678.62 1508.97M-237.241 -1448.28C-237.241 -1448.28 -49.6552 -331.035 1230.34 19.3102C2510.34 369.655 2697.93 1486.9 2697.93 1486.9M-217.931 -1470.35C-217.931 -1470.35 -30.3448 -353.104 1249.66 -2.75879C2529.66 347.586 2717.24 1464.83 2717.24 1464.83M-198.621 -1492.41C-198.621 -1492.41 -11.0345 -375.173 1268.97 -24.8278C2548.97 325.517 2736.55 1442.76 2736.55 1442.76M-179.31 -1514.48C-179.31 -1514.48 8.27586 -397.242 1288.28 -46.8967C2568.28 303.448 2755.86 1420.69 2755.86 1420.69M-160 -1536.55C-160 -1536.55 27.5862 -419.311 1307.59 -68.9657C2587.59 281.379 2775.17 1398.62 2775.17 1398.62M-140.69 -1558.62C-140.69 -1558.62 46.8966 -441.379 1326.9 -91.0347C2606.9 259.31 2794.48 1376.55 2794.48 1376.55M-121.379 -1580.69C-121.379 -1580.69 66.2069 -463.448 1346.21 -113.104C2626.21 237.241 2813.79 1354.48 2813.79 1354.48M-102.069 -1602.76C-102.069 -1602.76 85.5172 -485.517 1365.52 -135.173C2645.52 215.172 2833.1 1332.41 2833.1 1332.41M-82.7586 -1624.83C-82.7586 -1624.83 104.828 -507.586 1384.83 -157.242C2664.83 193.103 2852.41 1310.34 2852.41 1310.34M-63.4483 -1646.9C-63.4483 -1646.9 124.138 -529.655 1404.14 -179.311C2684.14 171.034 2871.72 1288.28 2871.72 1288.28M-44.1379 -1668.97C-44.1379 -1668.97 143.448 -551.724 1423.45 -201.379C2703.45 148.965 2891.03 1266.21 2891.03 1266.21M-24.8276 -1691.03C-24.8276 -1691.03 162.759 -573.793 1442.76 -223.448C2722.76 126.896 2910.34 1244.14 2910.34 1244.14M-5.51724 -1713.1C-5.51724 -1713.1 182.069 -595.862 1462.07 -245.517C2742.07 104.827 2929.66 1222.07 2929.66 1222.07M13.7931 -1735.17C13.7931 -1735.17 201.379 -617.931 1481.38 -267.586C2761.38 82.7585 2948.97 1200 2948.97 1200M33.1035 -1757.24C33.1035 -1757.24 220.69 -640 1500.69 -289.655C2780.69 60.6895 2968.28 1177.93 2968.28 1177.93M52.4138 -1779.31C52.4138 -1779.31 240 -662.069 1520 -311.724C2800 38.6205 2987.59 1155.86 2987.59 1155.86" stroke="url(#paint0_radial_4377_3411)" stroke-opacity="0.05"/>
</g>
</g>
<defs>
<radialGradient id="paint0_radial_4377_3411" cx="0" cy="0" r="1" gradientUnits="userSpaceOnUse" gradientTransform="translate(971.034 93.7929) rotate(90) scale(1531.03 4305.16)">
<stop offset="0.0666667" stop-color="#212730"/>
<stop offset="0.243243" stop-color="#212730"/>
<stop offset="0.43594" stop-color="white" stop-opacity="0"/>
</radialGradient>
<clipPath id="clip0_4377_3411">
<rect width="1920" height="714" fill="white"/>
</clipPath>
<clipPath id="clip1_4377_3411">
<rect width="1920" height="1154" fill="white"/>
</clipPath>
</defs>
</svg>
