<svg width="40" height="40" viewBox="0 0 40 40" fill="none" xmlns="http://www.w3.org/2000/svg">
<g clip-path="url(#clip0_4377_3581)">
<path d="M20 -0.00195312C31.0456 -0.00195312 39.9998 8.95245 40 19.998C40 31.0438 31.0457 39.998 20 39.998C8.95429 39.998 0 31.0438 0 19.998C0.000159773 8.95247 8.95439 -0.00192529 20 -0.00195312Z" fill="white"/>
<g clip-path="url(#clip1_4377_3581)">
<mask id="mask0_4377_3581" style="mask-type:luminance" maskUnits="userSpaceOnUse" x="9" y="9" width="22" height="22">
<path d="M9 9H31V31H9V9Z" fill="white"/>
</mask>
<g mask="url(#mask0_4377_3581)">
<path d="M26.325 10.0312H29.6989L22.3289 18.4761L31 29.9695H24.2114L18.8906 23.0003L12.8091 29.9695H9.43214L17.3144 20.9338L9 10.0328H15.9614L20.7637 16.4018L26.325 10.0312ZM25.1386 27.9455H27.0086L14.94 11.95H12.9349L25.1386 27.9455Z" fill="black"/>
</g>
</g>
</g>
<defs>
<clipPath id="clip0_4377_3581">
<rect width="40" height="40" fill="white"/>
</clipPath>
<clipPath id="clip1_4377_3581">
<rect width="22" height="22" fill="white" transform="translate(9 9)"/>
</clipPath>
</defs>
</svg>
